<svg width="16" height="16" viewBox="0 0 16 16" fill="none" xmlns="http://www.w3.org/2000/svg">
<g clip-path="url(#clip0_1_167)">
<path d="M12.6667 4.66675H3.33333C2.59695 4.66675 2 5.2637 2 6.00008V12.0001C2 12.7365 2.59695 13.3334 3.33333 13.3334H12.6667C13.403 13.3334 14 12.7365 14 12.0001V6.00008C14 5.2637 13.403 4.66675 12.6667 4.66675Z" stroke="#222529" stroke-width="1.1" stroke-linecap="round" stroke-linejoin="round"/>
<path d="M5.33325 4.66667V3.33333C5.33325 2.97971 5.47373 2.64057 5.72378 2.39052C5.97382 2.14048 6.31296 2 6.66659 2H9.33325C9.68687 2 10.026 2.14048 10.2761 2.39052C10.5261 2.64057 10.6666 2.97971 10.6666 3.33333V4.66667" stroke="#222529" stroke-width="1.1" stroke-linecap="round" stroke-linejoin="round"/>
<path d="M8 8V8.00667" stroke="#222529" stroke-width="1.1" stroke-linecap="round" stroke-linejoin="round"/>
<path d="M2 8.66675C3.86105 9.60454 5.91602 10.093 8 10.093C10.084 10.093 12.1389 9.60454 14 8.66675" stroke="#222529" stroke-width="1.1" stroke-linecap="round" stroke-linejoin="round"/>
</g>
<defs>
<clipPath id="clip0_1_167">
<rect width="16" height="16" fill="white"/>
</clipPath>
</defs>
</svg>
