<svg width="20" height="15" viewBox="0 0 20 15" fill="none" xmlns="http://www.w3.org/2000/svg">
<path d="M7.31761 11.5H2.27502C1.89813 11.5 1.59261 11.1945 1.59261 10.8176C1.59261 10.4407 1.89813 10.1352 2.27502 10.1352H5.6701L0.199886 4.66493C-0.0666286 4.39842 -0.0666286 3.96635 0.199886 3.69987C0.466366 3.43339 0.898433 3.43336 1.16495 3.69987L6.6352 9.17012V5.77504C6.6352 5.39815 6.94071 5.09263 7.31761 5.09263C7.6945 5.09263 8.00001 5.39815 8.00001 5.77504V10.8176C8.00001 11.189 7.69818 11.5 7.31761 11.5Z" fill="#83BF6E"/>
<path d="M14.1761 12L18.0795 4.27841V4.21023H13.5795V3.27273H19.1705V4.26136L15.2841 12H14.1761Z" fill="#83BF6E"/>
</svg>
