<svg width="71" height="24" viewBox="0 0 71 24" fill="none" xmlns="http://www.w3.org/2000/svg">
<rect x="4" y="18" width="12" height="12" rx="2" transform="rotate(-90 4 18)" fill="#F3BA51"/>
<path d="M25.4091 6.36364H27.0909L31.0455 16.0227H31.1818L35.1364 6.36364H36.8182V18H35.5V9.15909H35.3864L31.75 18H30.4773L26.8409 9.15909H26.7273V18H25.4091V6.36364ZM42.0298 18.2045C41.4768 18.2045 40.9749 18.1004 40.5241 17.892C40.0734 17.6799 39.7154 17.375 39.4503 16.9773C39.1851 16.5758 39.0526 16.0909 39.0526 15.5227C39.0526 15.0227 39.151 14.6174 39.348 14.3068C39.545 13.9924 39.8082 13.7462 40.1378 13.5682C40.4673 13.3902 40.831 13.2576 41.2287 13.1705C41.6302 13.0795 42.0336 13.0076 42.4389 12.9545C42.9692 12.8864 43.3991 12.8352 43.7287 12.8011C44.062 12.7633 44.3045 12.7008 44.456 12.6136C44.6113 12.5265 44.6889 12.375 44.6889 12.1591V12.1136C44.6889 11.553 44.5355 11.1174 44.2287 10.8068C43.9257 10.4962 43.4654 10.3409 42.848 10.3409C42.2079 10.3409 41.706 10.4811 41.3423 10.7614C40.9787 11.0417 40.723 11.3409 40.5753 11.6591L39.3026 11.2045C39.5298 10.6742 39.8329 10.2614 40.2116 9.96591C40.5942 9.66667 41.0109 9.45833 41.4616 9.34091C41.9162 9.2197 42.3632 9.15909 42.8026 9.15909C43.0829 9.15909 43.4048 9.19318 43.7685 9.26136C44.1359 9.32576 44.4901 9.46023 44.831 9.66477C45.1757 9.86932 45.4616 10.178 45.6889 10.5909C45.9162 11.0038 46.0298 11.5568 46.0298 12.25V18H44.6889V16.8182H44.6207C44.5298 17.0076 44.3783 17.2102 44.1662 17.4261C43.9541 17.642 43.6719 17.8258 43.3196 17.9773C42.9673 18.1288 42.5374 18.2045 42.0298 18.2045ZM42.2344 17C42.7647 17 43.2116 16.8958 43.5753 16.6875C43.9427 16.4792 44.2192 16.2102 44.4048 15.8807C44.5942 15.5511 44.6889 15.2045 44.6889 14.8409V13.6136C44.6321 13.6818 44.5071 13.7443 44.3139 13.8011C44.1245 13.8542 43.9048 13.9015 43.6548 13.9432C43.4086 13.9811 43.1681 14.0152 42.9332 14.0455C42.7022 14.072 42.5147 14.0947 42.3707 14.1136C42.0223 14.1591 41.6965 14.233 41.3935 14.3352C41.0942 14.4337 40.8518 14.5833 40.6662 14.7841C40.4844 14.9811 40.3935 15.25 40.3935 15.5909C40.3935 16.0568 40.5658 16.4091 40.9105 16.6477C41.259 16.8826 41.7003 17 42.2344 17ZM48.4773 9.27273H49.8182V18.6364C49.8182 19.1742 49.7254 19.6402 49.5398 20.0341C49.358 20.428 49.0814 20.733 48.7102 20.9489C48.3428 21.1648 47.8788 21.2727 47.3182 21.2727C47.2727 21.2727 47.2273 21.2727 47.1818 21.2727C47.1364 21.2727 47.0909 21.2727 47.0455 21.2727V20.0227C47.0909 20.0227 47.1326 20.0227 47.1705 20.0227C47.2083 20.0227 47.25 20.0227 47.2955 20.0227C47.7045 20.0227 48.0038 19.9015 48.1932 19.6591C48.3826 19.4205 48.4773 19.0795 48.4773 18.6364V9.27273ZM49.1364 7.81818C48.875 7.81818 48.6496 7.72917 48.4602 7.55114C48.2746 7.37311 48.1818 7.15909 48.1818 6.90909C48.1818 6.65909 48.2746 6.44508 48.4602 6.26705C48.6496 6.08902 48.875 6 49.1364 6C49.3977 6 49.6212 6.08902 49.8068 6.26705C49.9962 6.44508 50.0909 6.65909 50.0909 6.90909C50.0909 7.15909 49.9962 7.37311 49.8068 7.55114C49.6212 7.72917 49.3977 7.81818 49.1364 7.81818ZM55.8196 18.1818C55.0317 18.1818 54.3404 17.9943 53.7457 17.6193C53.1548 17.2443 52.6927 16.7197 52.3594 16.0455C52.0298 15.3712 51.8651 14.5833 51.8651 13.6818C51.8651 12.7727 52.0298 11.9792 52.3594 11.3011C52.6927 10.6231 53.1548 10.0966 53.7457 9.72159C54.3404 9.34659 55.0317 9.15909 55.8196 9.15909C56.6075 9.15909 57.2969 9.34659 57.8878 9.72159C58.4825 10.0966 58.9446 10.6231 59.2741 11.3011C59.6075 11.9792 59.7741 12.7727 59.7741 13.6818C59.7741 14.5833 59.6075 15.3712 59.2741 16.0455C58.9446 16.7197 58.4825 17.2443 57.8878 17.6193C57.2969 17.9943 56.6075 18.1818 55.8196 18.1818ZM55.8196 16.9773C56.4181 16.9773 56.9105 16.8239 57.2969 16.517C57.6832 16.2102 57.9692 15.8068 58.1548 15.3068C58.3404 14.8068 58.4332 14.2652 58.4332 13.6818C58.4332 13.0985 58.3404 12.5549 58.1548 12.0511C57.9692 11.5473 57.6832 11.1402 57.2969 10.8295C56.9105 10.5189 56.4181 10.3636 55.8196 10.3636C55.2211 10.3636 54.7287 10.5189 54.3423 10.8295C53.956 11.1402 53.67 11.5473 53.4844 12.0511C53.2988 12.5549 53.206 13.0985 53.206 13.6818C53.206 14.2652 53.2988 14.8068 53.4844 15.3068C53.67 15.8068 53.956 16.2102 54.3423 16.517C54.7287 16.8239 55.2211 16.9773 55.8196 16.9773ZM61.821 18V9.27273H63.1165V10.5909H63.2074C63.3665 10.1591 63.6544 9.80871 64.071 9.53977C64.4877 9.27083 64.9574 9.13636 65.4801 9.13636C65.5786 9.13636 65.7017 9.13826 65.8494 9.14205C65.9972 9.14583 66.1089 9.15152 66.1847 9.15909V10.5227C66.1392 10.5114 66.035 10.4943 65.8722 10.4716C65.7131 10.4451 65.5445 10.4318 65.3665 10.4318C64.9422 10.4318 64.5634 10.5208 64.2301 10.6989C63.9006 10.8731 63.6392 11.1155 63.446 11.4261C63.2566 11.733 63.1619 12.0833 63.1619 12.4773V18H61.821Z" fill="#4A5056"/>
</svg>
