<svg width="22" height="22" viewBox="0 0 22 22" fill="none" xmlns="http://www.w3.org/2000/svg">
<g clip-path="url(#clip0_1_125)">
<path d="M17.4167 5.5H4.58333C3.57081 5.5 2.75 6.32081 2.75 7.33333V14.6667C2.75 15.6792 3.57081 16.5 4.58333 16.5H17.4167C18.4292 16.5 19.25 15.6792 19.25 14.6667V7.33333C19.25 6.32081 18.4292 5.5 17.4167 5.5Z" stroke="#050915" stroke-width="1.3" stroke-linecap="round" stroke-linejoin="round"/>
<path d="M12.9286 9H9H10.0714C10.4503 9 10.8137 9.15051 11.0816 9.41842C11.3495 9.68633 11.5 10.0497 11.5 10.4286C11.5 10.8075 11.3495 11.1708 11.0816 11.4387C10.8137 11.7066 10.4503 11.8571 10.0714 11.8571H9L11.1429 14" stroke="#050915" stroke-linecap="round" stroke-linejoin="round"/>
<path d="M9 10.4297H12.9286" stroke="#050915" stroke-linecap="round" stroke-linejoin="round"/>
<path d="M16.5 11H16.5081" stroke="#050915" stroke-width="1.2" stroke-linecap="round" stroke-linejoin="round"/>
<path d="M5.5 11H5.50815" stroke="#050915" stroke-width="1.2" stroke-linecap="round" stroke-linejoin="round"/>
</g>
<defs>
<clipPath id="clip0_1_125">
<rect width="22" height="22" fill="white"/>
</clipPath>
</defs>
</svg>
