<svg width="20" height="21" viewBox="0 0 20 21" fill="none" xmlns="http://www.w3.org/2000/svg">
<path d="M8.3331 2.76678C7.02952 3.08037 5.83053 3.75017 4.8605 4.70669C3.89047 5.66322 3.18472 6.87163 2.81646 8.2066C2.4482 9.54157 2.43083 10.9545 2.76617 12.2988C3.10151 13.643 3.77734 14.8697 4.72355 15.8516C5.66977 16.8335 6.85191 17.5348 8.14736 17.8828C9.44281 18.2307 10.8044 18.2127 12.0909 17.8306C13.3773 17.4485 14.5419 16.7161 15.4637 15.7095C16.3854 14.7029 17.0309 13.4587 17.3331 12.106C17.3331 11.8767 17.2453 11.6567 17.089 11.4945C16.9327 11.3324 16.7208 11.2413 16.4998 11.2413H10.8331C10.3911 11.2413 9.96715 11.0591 9.65459 10.7347C9.34203 10.4104 9.16643 9.97047 9.16643 9.51178V3.45858C9.15608 3.35612 9.12623 3.25683 9.07861 3.16644C9.031 3.07605 8.96656 2.99637 8.88904 2.93202C8.81153 2.86767 8.72247 2.81992 8.62704 2.79156C8.5316 2.7632 8.43169 2.75477 8.3331 2.76678Z" stroke="#1E357D" stroke-width="1.5" stroke-linecap="round" stroke-linejoin="round"/>
<path d="M12.5002 3.0249C13.5583 3.41152 14.5194 4.03951 15.3126 4.86262C16.1058 5.68574 16.711 6.68301 17.0836 7.78099H13.3336C13.1126 7.78099 12.9006 7.68989 12.7443 7.52772C12.588 7.36554 12.5002 7.14559 12.5002 6.91625V3.0249Z" stroke="#1E357D" stroke-width="1.5" stroke-linecap="round" stroke-linejoin="round"/>
</svg>
