<svg width="81" height="24" viewBox="0 0 81 24" fill="none" xmlns="http://www.w3.org/2000/svg">
<rect x="4" y="18" width="12" height="12" rx="2" transform="rotate(-90 4 18)" fill="#E53A3A"/>
<path d="M31.7727 9.27273C31.7045 8.69697 31.428 8.25 30.9432 7.93182C30.4583 7.61364 29.8636 7.45455 29.1591 7.45455C28.6439 7.45455 28.1932 7.53788 27.8068 7.70455C27.4242 7.87121 27.125 8.10038 26.9091 8.39205C26.697 8.68371 26.5909 9.01515 26.5909 9.38636C26.5909 9.69697 26.6648 9.96401 26.8125 10.1875C26.964 10.4072 27.1572 10.5909 27.392 10.7386C27.6269 10.8826 27.8731 11.0019 28.1307 11.0966C28.3883 11.1875 28.625 11.2614 28.8409 11.3182L30.0227 11.6364C30.3258 11.7159 30.6629 11.8258 31.0341 11.9659C31.4091 12.1061 31.767 12.2973 32.108 12.5398C32.4527 12.7784 32.7367 13.0852 32.9602 13.4602C33.1837 13.8352 33.2955 14.2955 33.2955 14.8409C33.2955 15.4697 33.1307 16.0379 32.8011 16.5455C32.4754 17.053 31.9981 17.4564 31.3693 17.7557C30.7443 18.0549 29.9848 18.2045 29.0909 18.2045C28.2576 18.2045 27.536 18.0701 26.9261 17.8011C26.3201 17.5322 25.8428 17.1572 25.4943 16.6761C25.1496 16.1951 24.9545 15.6364 24.9091 15H26.3636C26.4015 15.4394 26.5492 15.803 26.8068 16.0909C27.0682 16.375 27.3977 16.5871 27.7955 16.7273C28.197 16.8636 28.6288 16.9318 29.0909 16.9318C29.6288 16.9318 30.1117 16.8447 30.5398 16.6705C30.9678 16.4924 31.3068 16.2462 31.5568 15.9318C31.8068 15.6136 31.9318 15.2424 31.9318 14.8182C31.9318 14.4318 31.8239 14.1174 31.608 13.875C31.392 13.6326 31.108 13.4356 30.7557 13.2841C30.4034 13.1326 30.0227 13 29.6136 12.8864L28.1818 12.4773C27.2727 12.2159 26.553 11.8428 26.0227 11.358C25.4924 10.8731 25.2273 10.2386 25.2273 9.45455C25.2273 8.80303 25.4034 8.23485 25.7557 7.75C26.1117 7.26136 26.589 6.88258 27.1875 6.61364C27.7898 6.34091 28.4621 6.20455 29.2045 6.20455C29.9545 6.20455 30.6212 6.33901 31.2045 6.60795C31.7879 6.87311 32.25 7.23674 32.5909 7.69886C32.9356 8.16098 33.1174 8.68561 33.1364 9.27273H31.7727ZM39.0895 18.1818C38.2486 18.1818 37.5232 17.9962 36.9134 17.625C36.3073 17.25 35.8395 16.7273 35.5099 16.0568C35.1842 15.3826 35.0213 14.5985 35.0213 13.7045C35.0213 12.8106 35.1842 12.0227 35.5099 11.3409C35.8395 10.6553 36.2978 10.1212 36.8849 9.73864C37.4759 9.35227 38.1652 9.15909 38.9531 9.15909C39.4077 9.15909 39.8565 9.23485 40.2997 9.38636C40.7429 9.53788 41.1463 9.78409 41.5099 10.125C41.8736 10.4621 42.1634 10.9091 42.3793 11.4659C42.5952 12.0227 42.7031 12.7083 42.7031 13.5227V14.0909H35.9759V12.9318H41.3395C41.3395 12.4394 41.241 12 41.044 11.6136C40.8509 11.2273 40.5743 10.9223 40.2145 10.6989C39.8584 10.4754 39.438 10.3636 38.9531 10.3636C38.419 10.3636 37.9569 10.4962 37.5668 10.7614C37.1804 11.0227 36.883 11.3636 36.6747 11.7841C36.4664 12.2045 36.3622 12.6553 36.3622 13.1364V13.9091C36.3622 14.5682 36.4759 15.1269 36.7031 15.5852C36.9342 16.0398 37.2543 16.3864 37.6634 16.625C38.0724 16.8598 38.5478 16.9773 39.0895 16.9773C39.4418 16.9773 39.7599 16.928 40.044 16.8295C40.3319 16.7273 40.58 16.5758 40.7884 16.375C40.9967 16.1705 41.1577 15.9167 41.2713 15.6136L42.5668 15.9773C42.4304 16.4167 42.2012 16.803 41.8793 17.1364C41.5573 17.4659 41.1596 17.7235 40.6861 17.9091C40.2126 18.0909 39.6804 18.1818 39.0895 18.1818ZM51.6136 9.27273L48.3864 18H47.0227L43.7955 9.27273H45.25L47.6591 16.2273H47.75L50.1591 9.27273H51.6136ZM56.7301 18.1818C55.8892 18.1818 55.1638 17.9962 54.554 17.625C53.9479 17.25 53.4801 16.7273 53.1506 16.0568C52.8248 15.3826 52.6619 14.5985 52.6619 13.7045C52.6619 12.8106 52.8248 12.0227 53.1506 11.3409C53.4801 10.6553 53.9384 10.1212 54.5256 9.73864C55.1165 9.35227 55.8059 9.15909 56.5938 9.15909C57.0483 9.15909 57.4972 9.23485 57.9403 9.38636C58.3835 9.53788 58.7869 9.78409 59.1506 10.125C59.5142 10.4621 59.804 10.9091 60.0199 11.4659C60.2358 12.0227 60.3438 12.7083 60.3438 13.5227V14.0909H53.6165V12.9318H58.9801C58.9801 12.4394 58.8816 12 58.6847 11.6136C58.4915 11.2273 58.215 10.9223 57.8551 10.6989C57.4991 10.4754 57.0786 10.3636 56.5938 10.3636C56.0597 10.3636 55.5975 10.4962 55.2074 10.7614C54.821 11.0227 54.5237 11.3636 54.3153 11.7841C54.107 12.2045 54.0028 12.6553 54.0028 13.1364V13.9091C54.0028 14.5682 54.1165 15.1269 54.3438 15.5852C54.5748 16.0398 54.8949 16.3864 55.304 16.625C55.7131 16.8598 56.1884 16.9773 56.7301 16.9773C57.0824 16.9773 57.4006 16.928 57.6847 16.8295C57.9725 16.7273 58.2206 16.5758 58.429 16.375C58.6373 16.1705 58.7983 15.9167 58.9119 15.6136L60.2074 15.9773C60.071 16.4167 59.8419 16.803 59.5199 17.1364C59.1979 17.4659 58.8002 17.7235 58.3267 17.9091C57.8532 18.0909 57.321 18.1818 56.7301 18.1818ZM62.3835 18V9.27273H63.679V10.5909H63.7699C63.929 10.1591 64.2169 9.80871 64.6335 9.53977C65.0502 9.27083 65.5199 9.13636 66.0426 9.13636C66.1411 9.13636 66.2642 9.13826 66.4119 9.14205C66.5597 9.14583 66.6714 9.15152 66.7472 9.15909V10.5227C66.7017 10.5114 66.5975 10.4943 66.4347 10.4716C66.2756 10.4451 66.107 10.4318 65.929 10.4318C65.5047 10.4318 65.1259 10.5208 64.7926 10.6989C64.4631 10.8731 64.2017 11.1155 64.0085 11.4261C63.8191 11.733 63.7244 12.0833 63.7244 12.4773V18H62.3835ZM71.7301 18.1818C70.8892 18.1818 70.1638 17.9962 69.554 17.625C68.9479 17.25 68.4801 16.7273 68.1506 16.0568C67.8248 15.3826 67.6619 14.5985 67.6619 13.7045C67.6619 12.8106 67.8248 12.0227 68.1506 11.3409C68.4801 10.6553 68.9384 10.1212 69.5256 9.73864C70.1165 9.35227 70.8059 9.15909 71.5938 9.15909C72.0483 9.15909 72.4972 9.23485 72.9403 9.38636C73.3835 9.53788 73.7869 9.78409 74.1506 10.125C74.5142 10.4621 74.804 10.9091 75.0199 11.4659C75.2358 12.0227 75.3438 12.7083 75.3438 13.5227V14.0909H68.6165V12.9318H73.9801C73.9801 12.4394 73.8816 12 73.6847 11.6136C73.4915 11.2273 73.215 10.9223 72.8551 10.6989C72.4991 10.4754 72.0786 10.3636 71.5938 10.3636C71.0597 10.3636 70.5975 10.4962 70.2074 10.7614C69.821 11.0227 69.5237 11.3636 69.3153 11.7841C69.107 12.2045 69.0028 12.6553 69.0028 13.1364V13.9091C69.0028 14.5682 69.1165 15.1269 69.3438 15.5852C69.5748 16.0398 69.8949 16.3864 70.304 16.625C70.7131 16.8598 71.1884 16.9773 71.7301 16.9773C72.0824 16.9773 72.4006 16.928 72.6847 16.8295C72.9725 16.7273 73.2206 16.5758 73.429 16.375C73.6373 16.1705 73.7983 15.9167 73.9119 15.6136L75.2074 15.9773C75.071 16.4167 74.8419 16.803 74.5199 17.1364C74.1979 17.4659 73.8002 17.7235 73.3267 17.9091C72.8532 18.0909 72.321 18.1818 71.7301 18.1818Z" fill="#4A5056"/>
</svg>
