<svg width="20" height="15" viewBox="0 0 20 15" fill="none" xmlns="http://www.w3.org/2000/svg">
<path d="M8 4.18239L8 9.22498C8 9.60187 7.69449 9.90739 7.31759 9.90739C6.9407 9.90739 6.63518 9.60187 6.63518 9.22498L6.63518 5.8299L1.16493 11.3001C0.898419 11.5666 0.466353 11.5666 0.199872 11.3001C-0.0666075 11.0336 -0.0666418 10.6016 0.199872 10.3351L5.67012 4.8648L2.27504 4.8648C1.89815 4.8648 1.59263 4.55929 1.59263 4.1824C1.59263 3.8055 1.89815 3.49999 2.27504 3.49999L7.31759 3.49999C7.68899 3.49999 8 3.80182 8 4.18239Z" fill="#FF6A55"/>
<path d="M14.1761 12L18.0795 4.27841V4.21023H13.5795V3.27273H19.1705V4.26136L15.2841 12H14.1761Z" fill="#FF6A55"/>
</svg>
