<svg width="60" height="40" viewBox="0 0 60 40" fill="none" xmlns="http://www.w3.org/2000/svg">
<rect width="40" height="40" rx="20" fill="#F4F5F9"/>
<path d="M15.8042 22.3C15.8042 22.77 15.7642 23.225 15.6842 23.665C15.6042 24.105 15.4392 24.5 15.1892 24.85C14.9492 25.2 14.5942 25.48 14.1242 25.69C13.6642 25.9 13.0492 26.005 12.2792 26.005C11.7092 26.005 11.2242 25.92 10.8242 25.75C10.4242 25.57 10.0942 25.33 9.83416 25.03C9.57416 24.72 9.38416 24.355 9.26416 23.935C9.14416 23.515 9.08416 23.06 9.08416 22.57V22H10.9592V22.555C10.9592 23.165 11.0592 23.64 11.2592 23.98C11.4692 24.31 11.8592 24.475 12.4292 24.475C12.7292 24.475 12.9742 24.43 13.1642 24.34C13.3642 24.25 13.5192 24.12 13.6292 23.95C13.7492 23.77 13.8292 23.55 13.8692 23.29C13.9092 23.03 13.9292 22.735 13.9292 22.405V15.04H15.8042V22.3ZM17.0358 15.04H18.9408L20.8758 23.23H20.9058L23.0658 15.04H24.9858L27.0858 23.23H27.1158L29.1108 15.04H31.0158L28.0608 25.75H26.1558L24.0108 17.56H23.9808L21.7908 25.75H19.8558L17.0358 15.04Z" fill="#1E357D"/>
<g clip-path="url(#clip0_1_259)">
<path d="M56.5887 18H51.412C51.0465 18 50.8898 18.3236 51.0837 18.5735L53.5975 21.8211C53.7766 22.0539 54.2241 22.0653 54.4106 21.8211L56.9095 18.5735C57.1184 18.3066 56.9468 18 56.5887 18Z" fill="#4A5056"/>
</g>
<defs>
<clipPath id="clip0_1_259">
<rect width="12" height="12" fill="white" transform="translate(48 14)"/>
</clipPath>
</defs>
</svg>
